<svg width="136" height="136" fill="none" xmlns="http://www.w3.org/2000/svg"><path fill-rule="evenodd" clip-rule="evenodd" d="M68 136c37.555 0 68-30.445 68-68a67.9 67.9 0 0 0-3.812-22.503l-86.691 86.691A67.9 67.9 0 0 0 68 136Zm-54.95-27.935L46.417 74.7 7.891 36.176C2.854 45.67 0 56.502 0 68c0 14.98 4.844 28.829 13.05 40.065ZM36.177 7.891 74.7 46.416l33.365-33.365C96.829 4.844 82.98 0 68 0 56.502 0 45.67 2.854 36.176 7.891Z" fill="#FDBF5A"/><path d="M22.414 22.586 30.828 31M40.414 109 32 117.414M55.414 93 47 101.414M70.414 77 62 85.414M100.414 45 92 53.414M115.414 29 107 37.414M38 38l8.414 8.414M55 55l8.414 8.414M85.414 61 77 69.414" stroke="#FDBF5A" stroke-width="4"/></svg>