<svg width="196" height="36" fill="none" xmlns="http://www.w3.org/2000/svg"><path d="m16.646 5.16-1.8 6.012H6.134l1.656-5.94 8.856-.072Zm6.768 18.684-5.04 6.12H.878l4.644-16.416h8.748l-2.88 10.26 12.024.036Zm27.669-12.636H27.359c.48-1.632 1.296-3.012 2.448-4.14 1.416-1.368 2.88-2.052 4.392-2.052h12.24c3.096 0 4.644 1.644 4.644 4.932v1.26Zm-.504 2.304-.144.576c-.384 1.248-1.044 3.528-1.98 6.84-.6 2.088-1.524 3.84-2.772 5.256C43.427 28.728 40.403 30 36.61 30h-4.284c-2.304 0-4.128-.432-5.472-1.296-1.656-1.032-2.484-2.628-2.484-4.788 0-1.152.18-2.376.54-3.672l1.8-6.66h8.388l-2.484 8.748c-.096.408-.144.72-.144.936 0 .48.216.78.648.9h5.22c.648-.168 1.128-.78 1.44-1.836l2.592-8.784 8.208-.036ZM76.515 5.16l-1.728 6.048H51.423l3.852-6.048h21.24Zm-2.232 8.388-1.98 6.588H60.747l-2.7 9.828h-9.468l4.572-16.416h21.132ZM102.46 5.16l-1.656 5.976H76.828l3.816-5.976h21.816Zm-9.324 8.388L88.78 29.964h-8.244L85 13.548h8.136Z" fill="#fff"/><path d="m128.792 5.16-1.656 5.976H103.16l3.816-5.976h21.816Zm-9.324 8.388-4.356 16.416h-8.244l4.464-16.416h8.136Zm31.516-2.34h-15.552l5.184-6.048h9.072l1.296 6.048Zm4.032 18.756h-9.036l-2.448-9.792h-5.112l-7.236 9.792h-10.548l12.888-16.452h17.964l3.528 16.452Zm30.405-24.768-5.796 5.976-17.424-.036-1.44-5.868h9.036l.684 2.808 2.664-2.844 12.276-.036Zm-8.028 8.352-4.356 4.788L175.485 30l-9.36-.036-.684-3.024-2.7 3.06h-12.205l12.637-13.968-.504-2.412 14.724-.072Zm17.721-8.388-1.656 6.048h-8.676l1.728-6.048h8.604Zm-2.196 8.388-4.5 16.416h-8.748l4.572-16.416h8.676Z" fill="#FDBF5A"/></svg>